HIERARCHY
ROOT Hips
{
	OFFSET 20.463800 -43.778099 7.826296
	CHANNELS 6 Xposition Yposition Zposition Xrotation Yrotation Zrotation
	JOINT Chest
	{
		OFFSET -0.076000 -8.347801 1.394599
		CHANNELS 6 Xposition Yposition Zposition Xrotation Yrotation Zrotation
		JOINT Chest2
		{
			OFFSET 0.000000 -3.321602 0.000000
			CHANNELS 6 Xposition Yposition Zposition Xrotation Yrotation Zrotation
			JOINT Neck
			{
				OFFSET 0.000000 -7.732101 -0.000001
				CHANNELS 6 Xposition Yposition Zposition Xrotation Yrotation Zrotation
				JOINT Head
				{
					OFFSET 0.000000 -2.173897 0.000000
					CHANNELS 6 Xposition Yposition Zposition Xrotation Yrotation Zrotation
					End Site
					{
						OFFSET 0.000000 -10.080803 -0.000001
					}
				}
			}
			JOINT LeftCollar
			{
				OFFSET 2.718100 -4.670502 -2.003100
				CHANNELS 6 Xposition Yposition Zposition Xrotation Yrotation Zrotation
				JOINT LeftShoulder
				{
					OFFSET 4.147100 0.000000 0.000000
					CHANNELS 6 Xposition Yposition Zposition Xrotation Yrotation Zrotation
					JOINT LeftElbow
					{
						OFFSET 0.000000 10.254799 0.000001
						CHANNELS 6 Xposition Yposition Zposition Xrotation Yrotation Zrotation
						JOINT LeftWrist
						{
							OFFSET 0.000000 12.664398 0.000001
							CHANNELS 6 Xposition Yposition Zposition Xrotation Yrotation Zrotation
							End Site
							{
								OFFSET 0.000000 2.173901 0.000000
							}
						}
					}
				}
			}
			JOINT RightCollar
			{
				OFFSET -2.489500 -4.979698 -2.085300
				CHANNELS 6 Xposition Yposition Zposition Xrotation Yrotation Zrotation
				JOINT RightShoulder
				{
					OFFSET -4.160400 0.000000 0.000000
					CHANNELS 6 Xposition Yposition Zposition Xrotation Yrotation Zrotation
					JOINT RightElbow
					{
						OFFSET 0.000000 10.253998 0.000001
						CHANNELS 6 Xposition Yposition Zposition Xrotation Yrotation Zrotation
						JOINT RightWrist
						{
							OFFSET 0.000000 12.768700 0.000001
							CHANNELS 6 Xposition Yposition Zposition Xrotation Yrotation Zrotation
							End Site
							{
								OFFSET 0.000000 2.173901 0.000000
							}
						}
					}
				}
			}
		}
	}
	JOINT LeftHip
	{
		OFFSET 2.212400 2.641499 -0.073599
		CHANNELS 6 Xposition Yposition Zposition Xrotation Yrotation Zrotation
		JOINT LeftKnee
		{
			OFFSET 0.000000 17.950598 0.000001
			CHANNELS 6 Xposition Yposition Zposition Xrotation Yrotation Zrotation
			JOINT LeftAnkle
			{
				OFFSET 0.000000 19.053900 0.000001
				CHANNELS 6 Xposition Yposition Zposition Xrotation Yrotation Zrotation
				End Site
				{
					OFFSET 0.000000 0.000000 -8.430400
				}
			}
		}
	}
	JOINT RightHip
	{
		OFFSET -2.162800 2.581299 -0.306099
		CHANNELS 6 Xposition Yposition Zposition Xrotation Yrotation Zrotation
		JOINT RightKnee
		{
			OFFSET 0.000000 18.327099 0.000001
			CHANNELS 6 Xposition Yposition Zposition Xrotation Yrotation Zrotation
			JOINT RightAnkle
			{
				OFFSET 0.000000 18.423401 0.000001
				CHANNELS 6 Xposition Yposition Zposition Xrotation Yrotation Zrotation
				End Site
				{
					OFFSET 0.000000 0.000001 -8.995800
				}
			}
		}
	}
}
MOTION
Frames: 6
Frame Time: 0.041667
-44.099312 -44.095299 32.814922 3.401200 3.878110 5.047474 -0.076001 -8.347797 1.394595 -1.012509 -3.257518 4.188287 0.000010 -3.321609 0.000004 -3.594808 10.176891 -0.284306 0.000001 -7.732087 -0.000003 8.550818 -56.793948 0.957520 0.000000 -2.173905 0.000000 3.802515 -7.377046 10.258848 2.718111 -4.670499 -2.003100 0.199582 -1.714222 3.682044 4.147112 0.000004 0.000002 -14.156186 21.690002 -109.273219 0.000000 10.254800 0.000002 -20.485170 -58.856409 -13.942393 -0.000004 12.664398 -0.000004 -3.449967 -75.019458 46.684189 -2.489494 -4.979699 -2.085300 -0.752139 5.904596 22.421839 -4.160398 -0.000012 -0.000009 -34.924379 -28.693334 103.523886 -0.000005 10.254017 -0.000001 -10.239038 55.780055 2.041648 -0.000009 12.768704 0.000003 -39.213390 62.477291 0.077078 2.212396 2.641505 -0.073596 1.665292 -164.175700 70.599199 -0.000010 17.950617 -0.000007 172.692058 -8.815088 -80.902436 -0.000001 19.053917 0.000008 -12.468429 -54.582016 43.356685 -2.162798 2.581305 -0.306099 -11.375412 3.860940 0.707789 -0.000009 18.327095 -0.000009 38.737613 21.614702 -19.955697 -0.000004 18.423397 -0.000003 8.665203 -15.951777 8.522562 
-44.516884 -43.998497 32.955723 3.680841 4.504823 5.017621 -0.075994 -8.347795 1.394598 -1.771871 -3.911849 3.982676 0.000005 -3.321615 -0.000006 -3.724874 11.318417 -0.308131 0.000007 -7.732094 0.000007 4.465190 -59.728515 -0.666137 0.000010 -2.173889 0.000007 3.268036 -8.414706 10.225687 2.718106 -4.670504 -2.003094 1.752454 0.034322 4.410736 4.147102 0.000007 0.000007 -11.967623 14.201649 -109.860383 -0.000009 10.254797 0.000005 -23.624159 -73.216650 -18.990706 -0.000003 12.664402 -0.000010 -0.465921 -65.252513 39.578733 -2.489500 -4.979688 -2.085295 1.142790 4.677538 21.552985 -4.160400 -0.000006 -0.000002 -30.672559 -20.836310 105.643014 -0.000004 10.253994 -0.000004 -8.386632 48.377666 1.018910 -0.000002 12.768696 0.000002 -46.632912 68.377283 21.596273 2.212401 2.641501 -0.073601 1.402815 -164.002527 71.652666 -0.000000 17.950615 -0.000003 174.597407 -9.531318 -77.021099 0.000007 19.053904 -0.000001 -14.176400 -55.583485 44.170553 -2.162795 2.581298 -0.306101 -12.527730 5.108144 0.435628 -0.000005 18.327087 -0.000009 39.881287 20.101682 -19.357173 -0.000006 18.423395 0.000002 8.303913 -15.504473 10.406884 
-44.968185 -43.989101 33.140228 4.384633 4.315577 4.880462 -0.075997 -8.347795 1.394599 -2.429740 -3.657823 4.225555 -0.000001 -3.321594 0.000003 -3.709071 11.700785 -0.351045 0.000010 -7.732086 0.000001 -1.229937 -62.903433 -5.008831 0.000000 -2.173898 0.000003 3.456085 -8.723368 11.408251 2.718112 -4.670493 -2.003095 -0.205481 -1.852799 3.375514 4.147081 -0.000008 -0.000000 -10.740547 12.768483 -107.012351 -0.000009 10.254797 0.000004 -14.188326 -69.522788 -10.764280 0.000000 12.664396 0.000006 1.018432 -72.175873 37.328674 -2.489487 -4.979687 -2.085297 1.588831 3.503511 21.020505 -4.160400 -0.000008 -0.000006 -27.607717 -13.514746 105.245511 0.000008 10.253995 0.000005 -5.967801 44.899901 1.075131 -0.000008 12.768700 -0.000004 -39.161610 62.198653 5.833301 2.212392 2.641500 -0.073605 1.484290 -162.564431 72.497595 0.000009 17.950603 -0.000003 175.723145 -9.477383 -74.131335 0.000002 19.053904 0.000009 -13.681740 -55.786014 44.603055 -2.162801 2.581295 -0.306099 -13.791197 6.495196 0.324385 -0.000003 18.327095 -0.000002 40.574773 19.167377 -19.283688 -0.000005 18.423397 0.000001 7.770023 -15.559849 9.330546 
-45.321487 -43.939999 33.290123 3.777886 5.863759 4.488546 -0.076001 -8.347795 1.394591 -2.707383 -5.372105 4.021804 -0.000002 -3.321604 -0.000002 -3.287916 10.861916 -0.276594 0.000005 -7.732090 -0.000000 -1.708750 -62.380944 -4.498868 -0.000002 -2.173892 0.000000 2.197347 -8.592388 11.231257 2.718108 -4.670489 -2.003103 1.879226 0.596734 4.115014 4.147108 0.000014 0.000000 -10.765227 9.280335 -106.480675 0.000005 10.254797 0.000005 -9.335491 -71.907029 -7.579203 0.000002 12.664390 0.000004 3.349431 -70.234787 39.481546 -2.489491 -4.979681 -2.085301 0.288216 3.926882 21.166495 -4.160416 0.000003 -0.000007 -23.264990 -10.782826 104.452034 0.000008 10.253981 0.000000 -4.182631 47.349269 0.889355 -0.000007 12.768688 0.000000 -36.090040 61.525005 4.500981 2.212399 2.641508 -0.073603 1.815080 -163.171047 72.695124 -0.000001 17.950609 -0.000004 176.066786 -10.443816 -71.627272 -0.000001 19.053905 0.000003 -12.443957 -55.658682 45.980550 -2.162798 2.581298 -0.306108 -13.329576 4.997369 0.260055 0.000002 18.327099 -0.000004 40.561150 18.881831 -20.106836 -0.000006 18.423401 -0.000005 7.935561 -14.693663 10.898372 
-45.636200 -43.870804 33.465626 3.303890 6.272646 3.938913 -0.075995 -8.347795 1.394610 -2.730563 -5.209509 4.449500 0.000001 -3.321612 0.000000 -3.110323 10.146824 -0.262312 -0.000000 -7.732097 -0.000001 -3.984691 -63.377558 -6.484360 0.000006 -2.173908 0.000010 1.919070 -9.095981 11.530740 2.718103 -4.670509 -2.003099 1.707961 0.827371 4.573992 4.147096 0.000005 -0.000002 -8.682474 7.253894 -105.429803 -0.000001 10.254789 0.000003 -8.578880 -72.335569 -7.333114 0.000004 12.664398 -0.000005 4.662020 -70.651723 39.285230 -2.489494 -4.979703 -2.085294 0.479385 3.335560 21.603574 -4.160407 -0.000005 -0.000002 -20.224728 -6.129618 102.633025 -0.000013 10.253999 -0.000001 -5.434876 56.510543 0.344924 -0.000003 12.768705 -0.000011 -33.402320 59.700156 2.464768 2.212400 2.641506 -0.073597 3.484784 -162.153691 72.949883 -0.000001 17.950619 -0.000002 175.935633 -9.826404 -69.746572 0.000002 19.053911 0.000005 -12.544461 -55.642075 46.475230 -2.162800 2.581307 -0.306090 -12.969803 5.692286 0.574320 -0.000007 18.327097 -0.000009 40.484539 17.873540 -19.742148 0.000008 18.423409 -0.000004 7.174981 -15.801969 8.076978 
-45.941917 -43.814709 33.651325 3.510160 6.948625 4.031327 -0.076013 -8.347792 1.394603 -3.639615 -5.910721 3.959165 0.000014 -3.321612 0.000006 -2.870945 10.226832 -0.286079 -0.000003 -7.732108 -0.000002 -4.796804 -63.791303 -6.712178 -0.000003 -2.173890 -0.000004 1.240341 -9.006489 11.172420 2.718107 -4.670514 -2.003107 1.741198 0.291845 5.251478 4.147110 0.000001 0.000000 -6.779281 6.624989 -104.315628 -0.000004 10.254798 -0.000002 -7.275201 -74.991338 -6.571804 -0.000002 12.664395 0.000006 2.495698 -71.092161 36.125287 -2.489493 -4.979702 -2.085304 1.794213 2.192085 21.592542 -4.160398 -0.000003 -0.000001 -18.383458 -3.020731 101.911962 0.000000 10.253996 -0.000002 -4.677295 53.726654 -0.001853 0.000003 12.768688 0.000006 -38.886179 64.928413 10.588608 2.212389 2.641501 -0.073599 3.723166 -162.129512 73.400580 -0.000006 17.950613 -0.000007 176.122302 -9.861669 -68.223105 0.000011 19.053907 0.000013 -12.834737 -56.044902 47.115618 -2.162817 2.581300 -0.306097 -13.471699 5.891179 0.505571 -0.000004 18.327095 -0.000008 41.770616 19.802667 -20.803327 0.000006 18.423405 -0.000001 7.526836 -17.941548 10.786316 
